<?xml version="1.0" encoding="iso-8859-1"?>
<!-- Generator: Adobe Illustrator 19.0.0, SVG Export Plug-In . SVG Version: 6.00 Build 0)  -->
<svg version="1.1" id="Layer_1" xmlns="http://www.w3.org/2000/svg" xmlns:xlink="http://www.w3.org/1999/xlink" x="0px" y="0px"
	 viewBox="0 0 512.004 512.004" style="enable-background:new 0 0 512.004 512.004;" xml:space="preserve">
<g>
	<g>
		<path style="fill:#fff;" d="M458.851,256.449l-187.64-147.814V93.13c0-13.414-8.423-25.485-20.956-30.034c-7.084-2.571-11.528-9.38-11.059-16.941
			c0.515-8.292,7.412-15.188,15.703-15.703c4.722-0.288,9.21,1.316,12.631,4.531c3.425,3.219,5.311,7.579,5.311,12.274h30.417
			c0-12.989-5.43-25.541-14.897-34.439c-9.602-9.025-22.148-13.528-35.347-12.726c-23.713,1.471-42.706,20.464-44.178,44.177
			c-1.293,20.815,11.47,40.314,31.038,47.419c0.54,0.196,0.919,0.789,0.919,1.443v15.503L53.845,255.871l-0.691,0.578
			c-9.915,8.808-13.277,22.511-8.566,34.909c4.711,12.397,16.325,20.407,29.587,20.407h42.246v119.122h279.163V311.764h42.245
			c13.262,0,24.876-8.01,29.588-20.408C472.128,278.96,468.766,265.257,458.851,256.449z M438.983,280.551
			c-0.303,0.796-0.736,0.796-1.155,0.796h-42.245v-2.513c0-20.976-17.066-38.042-38.043-38.042H154.463
			c-20.977,0-38.043,17.066-38.043,38.042v2.513H74.175c-0.419,0-0.852,0-1.154-0.796c-0.233-0.613-0.094-0.926,0.125-1.163
			l182.857-144.015l182.857,144.015C439.077,279.625,439.217,279.937,438.983,280.551z"/>
	</g>
</g>
<g>
</g>
<g>
</g>
<g>
</g>
<g>
</g>
<g>
</g>
<g>
</g>
<g>
</g>
<g>
</g>
<g>
</g>
<g>
</g>
<g>
</g>
<g>
</g>
<g>
</g>
<g>
</g>
<g>
</g>
</svg>
